HIERARCHY
ROOT Hips
{
	OFFSET 0.000000 0.000000 0.000000
	CHANNELS 6 Xposition Yposition Zposition Zrotation Yrotation Xrotation 
	JOINT LHipJoint
	{
		OFFSET 0.000000 0.000000 0.000000
		CHANNELS 3 Zrotation Yrotation Xrotation
		JOINT LeftUpLeg
		{
			OFFSET 1.363060 -1.794630 0.839290
			CHANNELS 3 Zrotation Yrotation Xrotation
			JOINT LeftLeg
			{
				OFFSET 2.448110 -6.726130 0.000000
				CHANNELS 3 Zrotation Yrotation Xrotation
				JOINT LeftFoot
				{
					OFFSET 2.562200 -7.039590 0.000000
					CHANNELS 3 Zrotation Yrotation Xrotation
					JOINT LeftToeBase
					{
						OFFSET 0.157640 -0.433110 2.322550
						CHANNELS 3 Zrotation Yrotation Xrotation
						End Site
						{
							OFFSET 0.000000 0.000000 0.000000
						}
					}
				}
			}
		}
	}
	JOINT RHipJoint
	{
		OFFSET 0.000000 0.000000 0.000000
		CHANNELS 3 Zrotation Yrotation Xrotation
		JOINT RightUpLeg
		{
			OFFSET -1.305520 -1.794630 0.839290
			CHANNELS 3 Zrotation Yrotation Xrotation
			JOINT RightLeg
			{
				OFFSET -2.542530 -6.985550 0.000000
				CHANNELS 3 Zrotation Yrotation Xrotation
				JOINT RightFoot
				{
					OFFSET -2.568260 -7.056230 0.000000
					CHANNELS 3 Zrotation Yrotation Xrotation
					JOINT RightToeBase
					{
						OFFSET -0.164730 -0.452590 2.363150
						CHANNELS 3 Zrotation Yrotation Xrotation
						End Site
						{
							OFFSET 0.000000 0.000000 0.000000
						}
					}
				}
			}
		}
	}
	JOINT LowerBack
	{
		OFFSET 0.000000 0.000000 0.000000
		CHANNELS 3 Zrotation Yrotation Xrotation
		JOINT Spine
		{
			OFFSET 0.028270 2.035590 -0.193380
			CHANNELS 3 Zrotation Yrotation Xrotation
			JOINT Spine1
			{
				OFFSET 0.056720 2.048850 -0.042750
				CHANNELS 3 Zrotation Yrotation Xrotation
				JOINT Neck
				{
					OFFSET 0.000000 0.000000 0.000000
					CHANNELS 3 Zrotation Yrotation Xrotation
					JOINT Neck1
					{
						OFFSET -0.054170 1.746240 0.172020
						CHANNELS 3 Zrotation Yrotation Xrotation
						JOINT Head
						{
							OFFSET 0.104070 1.761360 -0.123970
							CHANNELS 3 Zrotation Yrotation Xrotation
							End Site
							{
								OFFSET 0.000000 0.000000 0.000000
							}
						}
					}
				}
				JOINT LeftShoulder
				{
					OFFSET 0.000000 0.000000 0.000000
					CHANNELS 3 Zrotation Yrotation Xrotation
					JOINT LeftArm
					{
						OFFSET 3.362410 1.200890 -0.311210
						CHANNELS 3 Zrotation Yrotation Xrotation
						JOINT LeftForeArm
						{
							OFFSET 4.983000 -0.000000 -0.000000
							CHANNELS 3 Zrotation Yrotation Xrotation
							JOINT LeftHand
							{
								OFFSET 3.483560 -0.000000 -0.000000
								CHANNELS 3 Zrotation Yrotation Xrotation
								JOINT LeftFingerBase
								{
									OFFSET 0.000000 0.000000 0.000000
									CHANNELS 3 Zrotation Yrotation Xrotation
									JOINT LeftHandIndex1
									{
										OFFSET 0.715260 -0.000000 -0.000000
										CHANNELS 3 Zrotation Yrotation Xrotation
										End Site
										{
											OFFSET 0.000000 0.000000 0.000000
										}
									}
								}
								JOINT LThumb
								{
									OFFSET 0.000000 0.000000 0.000000
									CHANNELS 3 Zrotation Yrotation Xrotation
									End Site
									{
										OFFSET 0.000000 0.000000 0.000000
									}
								}
							}
						}
					}
				}
				JOINT RightShoulder
				{
					OFFSET 0.000000 0.000000 0.000000
					CHANNELS 3 Zrotation Yrotation Xrotation
					JOINT RightArm
					{
						OFFSET -3.136600 1.374050 -0.404650
						CHANNELS 3 Zrotation Yrotation Xrotation
						JOINT RightForeArm
						{
							OFFSET -5.241900 -0.000000 -0.000000
							CHANNELS 3 Zrotation Yrotation Xrotation
							JOINT RightHand
							{
								OFFSET -3.444170 -0.000000 -0.000000
								CHANNELS 3 Zrotation Yrotation Xrotation
								JOINT RightFingerBase
								{
									OFFSET 0.000000 0.000000 0.000000
									CHANNELS 3 Zrotation Yrotation Xrotation
									JOINT RightHandIndex1
									{
										OFFSET -0.622530 -0.000000 -0.000000
										CHANNELS 3 Zrotation Yrotation Xrotation
										End Site
										{
											OFFSET 0.000000 0.000000 0.000000
										}
									}
								}
								JOINT RThumb
								{
									OFFSET 0.000000 0.000000 0.000000
									CHANNELS 3 Zrotation Yrotation Xrotation
									End Site
									{
										OFFSET 0.000000 0.000000 0.000000
									}
								}
							}
						}
					}
				}
			}
		}
	}
}
MOTION
Frames: 5
Frame Time: 0.008333
6.423122 17.872179 11.922854 179.870552 -12.326210 -175.489752 -0.927520 -0.831790 0.056785 -24.353400 1.288101 -9.610231 0.807824 7.516392 20.844918 0.350296 -1.024132 -7.286319 0.061100 1.595000 4.387600 -2.242977 0.271007 -2.163682 10.725100 8.276646 -4.619569 -1.432428 -5.724508 15.575190 0.227957 -7.009352 -6.832172 -0.279400 3.399600 -9.393400 -5.085477 2.512649 3.928562 -0.540272 2.826320 -1.382956 2.114707 1.506382 2.419961 -9.222337 -7.192579 -3.307390 11.600166 -10.912772 14.258260 5.442500 -5.614100 7.864900 -6.452785 3.506599 -1.322544 -78.863290 -0.511159 10.716714 13.285728 -26.269252 -2.882760 1.027503 -0.260257 10.243778 -0.952863 38.550329 -1.250500 -7.125000 0.000000 0.000000 -44.874800 62.846900 -21.654500 1.516748 -2.184406 0.309727 86.712392 -1.204523 19.543711 -22.735380 33.967846 -6.295813 -0.149439 -0.389427 -23.952074 -14.690712 16.269772 -4.193900 7.125000 0.000000 0.000000 8.920700 -13.025700 6.764900 
6.420751 17.862992 11.921669 179.959644 -12.234685 -175.491832 -0.922577 -0.836743 0.058258 -24.272402 1.662041 -9.824988 0.836053 7.571325 21.014129 0.383473 -1.337419 -7.285462 0.060400 1.586000 4.362700 -2.253125 0.267773 -2.164098 10.817496 8.256157 -4.660112 -1.428534 -5.696235 15.492792 0.227205 -6.957299 -6.639460 -0.286300 3.441200 -9.509700 -4.972993 2.522070 3.919040 -0.527104 2.840636 -1.370848 2.115485 1.513991 2.465681 -9.290054 -7.371915 -3.364082 11.415822 -10.981695 13.693914 5.384000 -5.632000 7.691600 -6.460836 3.507828 -1.318513 -78.943144 -0.581907 10.412021 13.201304 -26.143795 -2.848119 1.028341 -0.261291 10.553794 -1.235872 38.365361 -1.422100 -7.125000 0.000000 0.000000 -44.881700 62.632700 -21.435100 1.541531 -2.192239 0.311901 86.673194 -1.286521 19.896410 -23.673900 34.994755 -6.775919 -0.137899 -0.402112 -25.441859 -14.249789 16.457285 -4.106100 7.125000 0.000000 0.000000 9.217800 -12.869100 7.026800 
6.421146 17.853311 11.926707 -179.977071 -12.199367 -175.497385 -0.924335 -0.836280 0.055774 -24.207571 1.670302 -9.801856 0.833057 7.566502 20.997664 0.382284 -1.316295 -7.302301 0.048700 1.424400 3.917400 -2.257021 0.262685 -2.158602 10.856039 8.275280 -4.754395 -1.440098 -5.738807 15.613039 0.215173 -6.813654 -6.738090 -0.239000 3.146400 -8.686600 -4.921801 2.480685 3.955874 -0.502278 2.783737 -1.351526 2.167164 1.483087 2.515488 -9.185167 -7.547460 -3.477435 11.012327 -11.059010 13.244212 5.203200 -5.655600 7.539500 -6.459914 3.504496 -1.312941 -79.095578 -0.573886 9.952367 13.178050 -26.104206 -2.831072 1.029541 -0.263369 11.002663 -1.456202 38.505215 -1.564900 -7.125000 0.000000 0.000000 -45.264400 62.667200 -21.695000 1.577105 -2.212990 0.312428 86.576573 -1.273466 20.468316 -24.706691 36.091506 -7.323732 -0.134988 -0.412131 -26.768923 -14.297124 17.017392 -4.251700 7.125000 0.000000 0.000000 9.200100 -12.294600 7.124700 
6.421343 17.861115 11.931350 -179.831893 -12.114843 -175.538290 -0.922261 -0.835490 0.057859 -24.053692 1.788695 -9.866162 0.836417 7.573832 21.022230 0.383591 -1.334060 -7.283939 0.039300 1.280200 3.520100 -2.263679 0.257474 -2.148081 10.994949 8.402607 -4.754060 -1.448226 -5.763780 15.684457 0.205975 -6.711550 -6.904199 -0.164100 2.609500 -7.193400 -4.741054 2.432573 4.070645 -0.490138 2.716234 -1.359896 2.105567 1.457966 2.441951 -9.239236 -7.644653 -3.437578 10.882265 -11.079583 12.834995 5.173900 -5.661800 7.399100 -6.473540 3.504674 -1.320540 -79.090875 -0.334925 9.684966 13.201228 -26.135613 -2.842733 1.030124 -0.267727 11.113036 -1.380226 38.431958 -1.516100 -7.125000 0.000000 0.000000 -45.100700 62.636800 -21.567200 1.599553 -2.208045 0.318141 86.558658 -1.392926 21.115121 -25.965376 37.375878 -8.010202 -0.127247 -0.428727 -28.261038 -14.190401 17.339456 -4.293500 7.125000 0.000000 0.000000 9.281500 -11.969100 7.253000 
6.420751 17.870401 11.932832 -179.806949 -11.869798 -175.457915 -0.916513 -0.837881 0.054458 -24.057206 1.901761 -10.049607 0.842862 7.597121 21.089004 0.376600 -1.240319 -7.340063 0.036000 1.224600 3.367000 -2.264647 0.254925 -2.130448 10.979128 8.598984 -4.860344 -1.451335 -5.760624 15.674777 0.199003 -6.610954 -6.842890 -0.118300 2.217600 -6.107300 -4.698769 2.470229 4.037114 -0.511488 2.767995 -1.378599 2.045481 1.490112 2.384995 -9.419091 -7.724786 -3.200360 11.032940 -11.078948 12.200230 5.284300 -5.655100 7.161100 -6.496045 3.514459 -1.327250 -78.996960 -0.174952 9.673139 13.157004 -26.075319 -2.832428 1.030511 -0.272393 10.977854 -1.138428 38.096687 -1.356400 -7.125000 0.000000 0.000000 -44.444000 62.466600 -21.008500 1.614238 -2.191272 0.330579 86.605081 -1.592412 21.555803 -27.355295 38.738287 -8.794836 -0.120719 -0.443200 -29.501815 -14.063594 17.780593 -4.354600 7.125000 0.000000 0.000000 9.377900 -11.527300 7.417300 
